<svg width="155" height="30" viewBox="0 0 155 30" fill="none" xmlns="http://www.w3.org/2000/svg">
<path d="M0 1.32C0.19 1.3 0.43 1.28 0.71 1.27C0.98 1.25 1.23 1.25 1.45 1.25C1.7 1.25 1.95 1.25 2.19 1.27C2.44 1.29 2.66 1.3 2.85 1.32V28.68C2.66 28.7 2.44 28.73 2.19 28.74C1.94 28.74 1.69 28.76 1.45 28.76C1.18 28.76 0.91 28.76 0.65 28.74C0.39 28.72 0.18 28.7 0.01 28.68V1.32H0Z" fill="#FF6600"/>
<path d="M21.85 9.27982C22.07 9.25982 22.28 9.22982 22.49 9.21982C22.7 9.20982 22.89 9.19982 23.09 9.19982C23.31 9.19982 23.52 9.19982 23.7 9.21982C23.89 9.21982 24.1 9.24982 24.32 9.27982C24.37 9.73982 24.41 10.2998 24.44 10.9898C24.46 11.6698 24.48 12.2698 24.48 12.7798C24.75 12.3198 25.11 11.8698 25.55 11.3898C25.99 10.9098 26.5 10.4898 27.09 10.1098C27.68 9.72982 28.36 9.41982 29.12 9.17982C29.89 8.93982 30.72 8.81982 31.63 8.81982C34.04 8.81982 35.79 9.48982 36.89 10.8198C37.98 12.1498 38.53 14.0198 38.53 16.4298V28.6798C38.37 28.6998 38.14 28.7298 37.85 28.7398C37.56 28.7398 37.34 28.7598 37.18 28.7598C37.05 28.7598 36.82 28.7598 36.52 28.7398C36.22 28.7198 35.99 28.6998 35.82 28.6798V17.1898C35.82 15.0398 35.46 13.4798 34.73 12.5498C34 11.6098 32.92 11.1498 31.46 11.1498C30.5 11.1498 29.6 11.3298 28.75 11.6798C27.9 12.0398 27.17 12.5498 26.55 13.2198C25.94 13.8898 25.45 14.7198 25.09 15.7198C24.73 16.7098 24.56 17.8398 24.56 19.1098V28.6998C24.4 28.7198 24.17 28.7498 23.89 28.7598C23.6 28.7598 23.37 28.7798 23.21 28.7798C23.07 28.7798 22.85 28.7798 22.55 28.7598C22.25 28.7398 22.02 28.7198 21.85 28.6998V9.27982Z" fill="#FF6600"/>
<path d="M62.63 9.27995C62.79 9.25995 63 9.22995 63.27 9.21995C63.53 9.19995 63.8 9.19995 64.07 9.19995C64.29 9.19995 64.56 9.19995 64.88 9.21995C65.2 9.23995 65.43 9.24995 65.6 9.27995L70.24 25.7999L75.42 9.27995C75.64 9.25995 75.88 9.22995 76.14 9.21995C76.4 9.19995 76.68 9.19995 76.98 9.19995H77.65C77.88 9.19995 78.12 9.21995 78.33 9.27995L83.51 25.57L88.15 9.27995C88.31 9.25995 88.51 9.22995 88.75 9.21995C88.98 9.19995 89.21 9.19995 89.43 9.19995C89.65 9.19995 89.9 9.19995 90.17 9.21995C90.44 9.23995 90.67 9.24995 90.83 9.27995L84.78 28.6899C84.28 28.7599 83.8 28.81 83.35 28.81C82.82 28.81 82.35 28.7699 81.91 28.6899L76.86 12.63L71.56 28.68C71.06 28.75 70.58 28.7999 70.12 28.7999C69.6 28.7999 69.12 28.76 68.69 28.68L62.64 9.27995H62.63Z" fill="#FF6600"/>
<path d="M94.35 1.31988C94.62 1.29988 95.01 1.25988 95.52 1.19988C96.02 1.14988 96.57 1.09988 97.14 1.03988C97.71 0.989883 98.29 0.949883 98.89 0.919883C99.47 0.899883 100 0.879883 100.47 0.879883C103.7 0.879883 106.18 1.44988 107.91 2.61988C109.63 3.76988 110.5 5.56988 110.5 7.99988C110.5 8.78988 110.38 9.50988 110.11 10.1499C109.85 10.7999 109.5 11.3799 109.06 11.8999C108.63 12.4299 108.11 12.8699 107.52 13.2099C106.93 13.5699 106.32 13.8399 105.69 14.0199C106.54 14.1199 107.36 14.3299 108.16 14.6499C108.95 14.9699 109.66 15.4099 110.28 15.9799C110.89 16.5499 111.39 17.2599 111.75 18.1099C112.11 18.9599 112.31 19.9799 112.31 21.1699C112.31 22.5399 112.02 23.7199 111.43 24.7099C110.84 25.6999 110.02 26.5199 108.97 27.1799C107.92 27.8399 106.67 28.3299 105.23 28.6499C103.79 28.9699 102.22 29.1199 100.52 29.1199C100.09 29.1199 99.59 29.1199 99.04 29.0799C98.49 29.0599 97.94 29.0299 97.37 28.9899C96.81 28.9499 96.26 28.8999 95.73 28.8299C95.2 28.7699 94.74 28.7099 94.36 28.6599V1.31988H94.35ZM101.09 12.9699C103.31 12.9699 104.93 12.5099 105.96 11.5999C106.99 10.6899 107.5 9.49988 107.5 8.01988C107.5 6.64988 106.96 5.49988 105.88 4.57988C104.79 3.65988 103.09 3.18988 100.76 3.18988C100.05 3.18988 99.37 3.21988 98.72 3.26988C98.08 3.31988 97.57 3.36988 97.18 3.42988V12.9799H101.09V12.9699ZM97.18 26.5599C97.56 26.6099 98.08 26.6599 98.72 26.6899C99.36 26.7299 100.04 26.7399 100.76 26.7399C101.83 26.7399 102.88 26.6499 103.91 26.4799C104.94 26.2999 105.85 25.9999 106.65 25.5699C107.44 25.1399 108.08 24.5699 108.56 23.8599C109.04 23.1499 109.28 22.2599 109.28 21.1899C109.28 20.1199 109.07 19.2299 108.66 18.5099C108.25 17.7899 107.69 17.1899 106.97 16.7299C106.26 16.2699 105.42 15.9499 104.47 15.7399C103.51 15.5399 102.48 15.4399 101.38 15.4399H97.19V26.5599H97.18Z" fill="#FF6600"/>
<path d="M118.25 19.3598C118.25 21.9398 118.9 23.8498 120.19 25.0598C121.47 26.2798 123.41 26.8798 125.98 26.8798C127.02 26.8798 127.99 26.7898 128.88 26.6298C129.77 26.4598 130.65 26.2398 131.48 25.9598C131.62 26.2398 131.73 26.5798 131.81 26.9798C131.9 27.3898 131.94 27.7598 131.97 28.0798C131.17 28.4098 130.24 28.6598 129.17 28.8398C128.1 29.0198 126.95 29.0998 125.67 29.0998C123.86 29.0998 122.31 28.8598 121.01 28.3598C119.71 27.8598 118.64 27.1698 117.81 26.2898C116.97 25.3998 116.35 24.3398 115.96 23.1098C115.56 21.8798 115.37 20.5298 115.37 19.0598C115.37 17.5898 115.56 16.3098 115.93 15.0698C116.29 13.8198 116.85 12.7298 117.61 11.7998C118.36 10.8498 119.32 10.1198 120.51 9.58979C121.69 9.05979 123.09 8.78979 124.74 8.78979C126.1 8.78979 127.32 9.0098 128.39 9.4398C129.46 9.8698 130.36 10.4698 131.09 11.2498C131.81 12.0298 132.35 12.9498 132.73 14.0198C133.1 15.1098 133.28 16.2798 133.28 17.5398C133.28 17.7698 133.28 18.0598 133.26 18.4198C133.24 18.7798 133.23 19.0798 133.21 19.3298H118.24V19.3498L118.25 19.3598ZM130.59 17.2598C130.59 16.4798 130.47 15.6998 130.26 14.9398C130.04 14.1798 129.7 13.5098 129.23 12.9398C128.76 12.3698 128.17 11.8998 127.42 11.5498C126.68 11.1898 125.79 11.0198 124.75 11.0198C122.83 11.0198 121.33 11.5598 120.27 12.6598C119.19 13.7498 118.56 15.2898 118.33 17.2598H130.59Z" fill="#FF6600"/>
<path d="M4.76999 14.68L15.17 1.32C15.39 1.3 15.61 1.28 15.84 1.27C16.07 1.25 16.3 1.25 16.51 1.25C16.81 1.25 17.1 1.25 17.37 1.27C17.65 1.29 17.93 1.3 18.23 1.32L8.12999 14.4L19.8 28.67C19.5 28.69 19.19 28.72 18.88 28.73C18.56 28.73 18.26 28.75 17.96 28.75C17.71 28.75 17.46 28.75 17.2 28.73C16.94 28.71 16.69 28.69 16.44 28.67L4.76999 14.68Z" fill="#FF6600"/>
<path d="M62.24 18.7099C62.24 13.0099 57.61 8.37988 51.91 8.37988C46.21 8.37988 41.58 13.0099 41.58 18.7099C41.58 24.4099 46.21 29.0399 51.91 29.0399C57.61 29.0399 62.24 24.4099 62.24 18.7099Z" fill="#FF6600"/>
<path d="M57.84 13.3998C56.46 11.8598 54.56 10.9398 52.5 10.8198C50.43 10.6998 48.44 11.3898 46.9 12.7698C45.53 13.9898 44.64 15.6298 44.39 17.4298L42.99 17.3798L45.02 20.9698L47.56 17.5398L45.99 17.4898C46.23 16.1298 46.9 14.8898 47.96 13.9498C49.19 12.8598 50.77 12.3098 52.42 12.3998C54.06 12.4898 55.57 13.2298 56.67 14.4598C57.77 15.6898 58.32 17.2698 58.22 18.9198C58.13 20.5598 57.39 22.0698 56.17 23.1698L57.22 24.3598C58.77 22.9798 59.68 21.0898 59.81 19.0198C59.93 16.9498 59.24 14.9598 57.86 13.4098L57.84 13.3998Z" fill="white"/>
<path d="M134.33 22.7099L134.04 22.3299L146.36 1.33985C146.87 1.16985 147.27 1.09985 147.7 1.09985C148.55 1.09985 148.75 1.20985 149.13 1.31985L137.95 20.4899H147.68V12.2099C148.17 12.1299 148.64 12.0999 149.08 12.0999C149.52 12.0999 149.97 12.1399 150.44 12.2099V20.4999H154.84C154.92 20.9299 154.96 21.1599 154.96 21.5399C154.96 21.9399 154.91 22.3399 154.84 22.7199H150.44V28.7999C150.2 28.8499 149.95 28.8799 149.72 28.8799H148.36C148.13 28.8799 147.89 28.8599 147.68 28.7999V22.7199H134.34L134.33 22.7099Z" fill="#FF6600"/>
</svg>
